<svg width="16" height="16" viewBox="0 0 16 16" fill="none" xmlns="http://www.w3.org/2000/svg">
<path fill-rule="evenodd" clip-rule="evenodd" d="M3.36175 1.73612C3.3425 0.800371 2.71886 0.0879059 1.70574 0.0879059C0.692353 0.0879059 0.0302124 0.800371 0.0302124 1.73612C0.0302124 2.65154 0.673104 3.38461 1.66697 3.38461H1.68622C2.71886 3.38461 3.36175 2.65154 3.36175 1.73612ZM3.36175 15.8989V5.44247H0.129918V15.8989H3.36175ZM8.6343 9.94135V15.8989H5.38597C5.38597 15.8989 5.43269 6.38041 5.38597 5.37937H8.63399L8.61063 6.77788C9.07689 6.04991 9.91661 4.98038 11.8297 4.98038C14.1629 4.98038 15.9121 6.50513 15.9121 9.78193V15.8989H12.6584V9.94135C12.6584 8.50751 11.8536 7.77923 10.5704 7.77923C9.59083 7.77923 9.00744 8.43901 8.75111 9.07638C8.65735 9.30367 8.6343 9.62251 8.6343 9.94135Z" fill="#0078B5"/>
</svg>
